Genre:Adventure | Family | Fantasy
Language:English  http://www.imdb.com/title/tt0940656/
Source:BluRay.x264-BestHD


Free.mp4
Format : MPEG-4
Format profile : Base Media
Codec ID : isom
File size : 1.83 GiB
Duration : 1h 41mn
Overall bit rate : 2 593 Kbps


Video
Format settings, CABAC : Yes
Format settings, ReFrames : 3 frames
Codec ID : avc1
Codec ID/Info : Advanced Video Coding
Duration : 1h 41mn
Bit rate mode : Variable
Bit rate : 2 159 Kbps
Maximum bit rate : 16.6 Mbps
Width : 1 280 pixels
Height : 544 pixels
Display aspect ratio : 2.35:1
Frame rate mode : Constant
Frame rate : 24.000 fps
Color space : YUV
Chroma subsampling : 4:2:0
Bit depth : 8 bits
Scan type : Progressive
Bits/(Pixel*Frame) : 0.129
Stream size : 1.51 GiB (83%)
Writing library : x264


Audio
ID : 2
Format : AAC
Format/Info : Advanced Audio Codec
Format version : Version 4
Format profile : LC
Format settings, SBR : No
Codec ID : 40
Duration : 1h 41mn
Bit rate mode : Variable
Bit rate : 447 Kbps
Maximum bit rate : 563 Kbps
Channel(s) : 6 channels
Channel positions : Front: L C R, Side: L R, LFE
Sampling rate : 48.0 KHz
Stream size : 323 MiB (17%)


Plot:
With Maltazard now 7 feet tall and Arthur still 2 inches small, our hero must find a way to grow back to his normal size ans stop the Evil M once and for all, with the help of Selenia and Betameche.
 
http://rapidhdd.com/images/15247vlcsnap-00001.png 
http://www.rapidhdd.com/images/586640vlcsnap-00002.png 
http://www.rapidhdd.com/images/563912vlcsnap-00004.png 
http://www.rapidhdd.com/images/640506vlcsnap-00005.png